<?xml version="1.0" encoding="UTF-8" standalone="no"?>
<!-- Created with Inkscape (http://www.inkscape.org/) -->

<svg
   xmlns:osb="http://www.openswatchbook.org/uri/2009/osb"
   xmlns:dc="http://purl.org/dc/elements/1.1/"
   xmlns:cc="http://creativecommons.org/ns#"
   xmlns:rdf="http://www.w3.org/1999/02/22-rdf-syntax-ns#"
   xmlns:svg="http://www.w3.org/2000/svg"
   xmlns="http://www.w3.org/2000/svg"
   xmlns:sodipodi="http://sodipodi.sourceforge.net/DTD/sodipodi-0.dtd"
   xmlns:inkscape="http://www.inkscape.org/namespaces/inkscape"
   width="80"
   height="80"
   id="svg2"
   version="1.1"
   inkscape:version="0.48.3.1 r9886"
   sodipodi:docname="exaos-dot-128px-red.svg"
   inkscape:export-filename="/home/exaos/Pictures/Avatar-Icons/Exaos/exaos-dot-128px-red.png"
   inkscape:export-xdpi="90"
   inkscape:export-ydpi="90">
  <defs
     id="defs4">
    <linearGradient
       id="linearGradient3793"
       osb:paint="solid">
      <stop
         style="stop-color:#000000;stop-opacity:1;"
         offset="0"
         id="stop3795" />
    </linearGradient>
  </defs>
  <sodipodi:namedview
     id="base"
     pagecolor="#ffffff"
     bordercolor="#666666"
     borderopacity="1.0"
     inkscape:pageopacity="0.0"
     inkscape:pageshadow="2"
     inkscape:zoom="4.461851"
     inkscape:cx="20.027673"
     inkscape:cy="55.141931"
     inkscape:document-units="px"
     inkscape:current-layer="layer1"
     showgrid="false"
     units="pt"
     inkscape:window-width="1075"
     inkscape:window-height="757"
     inkscape:window-x="119"
     inkscape:window-y="0"
     inkscape:window-maximized="0" />
  <metadata
     id="metadata7">
    <rdf:RDF>
      <cc:Work
         rdf:about="">
        <dc:format>image/svg+xml</dc:format>
        <dc:type
           rdf:resource="http://purl.org/dc/dcmitype/StillImage" />
        <dc:title></dc:title>
      </cc:Work>
    </rdf:RDF>
  </metadata>
  <g
     inkscape:label="Layer 1"
     inkscape:groupmode="layer"
     id="layer1"
     transform="translate(0,-972.36221)">
    <path
       style="font-size:459.52502440999995770px;font-style:normal;font-variant:normal;font-weight:500;font-stretch:normal;text-align:start;line-height:125%;letter-spacing:0px;word-spacing:0px;writing-mode:lr-tb;text-anchor:start;fill:#000080;fill-opacity:1;stroke:none;font-family:Dotsies;-inkscape-font-specification:Dotsies Medium"
       d="m 7.7971606,977.09662 c 2.3643264,0 4.7286534,0 7.0929814,0 0.02919,2.15897 0.05838,4.31803 0.08757,6.477 -2.364327,0 -4.728654,0 -7.0929808,0 -0.029189,-2.15897 -0.058378,-4.31803 -0.087568,-6.477 z"
       id="path3815" />
    <path
       style="font-size:459.52502440999995770px;font-style:normal;font-variant:normal;font-weight:500;font-stretch:normal;text-align:start;line-height:125%;letter-spacing:0px;word-spacing:0px;writing-mode:lr-tb;text-anchor:start;fill:#ff0000;fill-opacity:1;stroke:none;font-family:Dotsies;-inkscape-font-specification:Dotsies Medium"
       d="m 4.3820216,1036.4937 c 4.7870324,0 9.5740644,0 14.3610974,0 0,3.9745 0,7.949 0,11.9236 -4.787033,0 -9.574065,0 -14.3610974,0 0,-3.9746 0,-7.9491 0,-11.9236 z"
       id="path3813" />
    <path
       style="font-size:459.52502440999995770px;font-style:normal;font-variant:normal;font-weight:500;font-stretch:normal;text-align:start;line-height:125%;letter-spacing:0px;word-spacing:0px;writing-mode:lr-tb;text-anchor:start;fill:#ff0000;fill-opacity:1;stroke:none;font-family:Dotsies;-inkscape-font-specification:Dotsies Medium"
       d="m 18.743119,988.87299 c 4.787033,0 9.574064,0 14.361097,0 0,3.9745 0,7.94901 0,11.92361 -4.787033,0 -9.574064,0 -14.361097,0 0,-3.9746 0,-7.94911 0,-11.92361 z"
       id="path3811" />
    <path
       style="font-size:459.52502440999995770px;font-style:normal;font-variant:normal;font-weight:500;font-stretch:normal;text-align:start;line-height:125%;letter-spacing:0px;word-spacing:0px;writing-mode:lr-tb;text-anchor:start;fill:#ff0000;fill-opacity:1;stroke:none;font-family:Dotsies;-inkscape-font-specification:Dotsies Medium"
       d="m 18.743119,1036.4937 c 4.787033,0 9.574064,0 14.361097,0 0,3.9745 0,7.949 0,11.9236 -4.787033,0 -9.574064,0 -14.361097,0 0,-3.9746 0,-7.9491 0,-11.9236 z"
       id="path3809" />
    <path
       style="font-size:459.52502440999995770px;font-style:normal;font-variant:normal;font-weight:500;font-stretch:normal;text-align:start;line-height:125%;letter-spacing:0px;word-spacing:0px;writing-mode:lr-tb;text-anchor:start;fill:#ff0000;fill-opacity:1;stroke:none;font-family:Dotsies;-inkscape-font-specification:Dotsies Medium"
       d="m 18.743119,1012.7201 c 4.787033,0 9.574064,0 14.361097,0 0,3.95 0,7.9001 0,11.85 -4.787033,0 -9.574064,0 -14.361097,0 0,-3.9499 0,-7.9 0,-11.85 z"
       id="path3807" />
    <path
       style="font-size:459.52502440999995770px;font-style:normal;font-variant:normal;font-weight:500;font-stretch:normal;text-align:start;line-height:125%;letter-spacing:0px;word-spacing:0px;writing-mode:lr-tb;text-anchor:start;fill:#ff0000;fill-opacity:1;stroke:none;font-family:Dotsies;-inkscape-font-specification:Dotsies Medium"
       d="m 33.104216,988.87299 c 4.787033,0 9.574065,0 14.361097,0 0,3.9745 0,7.94901 0,11.92361 -4.787032,0 -9.574064,0 -14.361097,0 0,-3.9746 0,-7.94911 0,-11.92361 z"
       id="path3805" />
    <path
       style="font-size:459.52502440999995770px;font-style:normal;font-variant:normal;font-weight:500;font-stretch:normal;text-align:start;line-height:125%;letter-spacing:0px;word-spacing:0px;writing-mode:lr-tb;text-anchor:start;fill:#ff0000;fill-opacity:1;stroke:none;font-family:Dotsies;-inkscape-font-specification:Dotsies Medium"
       d="m 47.465315,988.87299 c 4.787032,0 9.574064,0 14.361097,0 0,3.9745 0,7.94901 0,11.92361 -4.787033,0 -9.574065,0 -14.361097,0 0,-3.9746 0,-7.94911 0,-11.92361 z"
       id="path3803" />
    <path
       style="font-size:459.52502440999995770px;font-style:normal;font-variant:normal;font-weight:500;font-stretch:normal;text-align:start;line-height:125%;letter-spacing:0px;word-spacing:0px;writing-mode:lr-tb;text-anchor:start;fill:#ff0000;fill-opacity:1;stroke:none;font-family:Dotsies;-inkscape-font-specification:Dotsies Medium"
       d="m 47.465315,1036.4937 c 4.787032,0 9.574064,0 14.361097,0 0,3.9745 0,7.949 0,11.9236 -4.787033,0 -9.574065,0 -14.361097,0 0,-3.9746 0,-7.9491 0,-11.9236 z"
       id="path3801" />
    <path
       style="font-size:459.52502440999995770px;font-style:normal;font-variant:normal;font-weight:500;font-stretch:normal;text-align:start;line-height:125%;letter-spacing:0px;word-spacing:0px;writing-mode:lr-tb;text-anchor:start;fill:#ff0000;fill-opacity:1;stroke:none;font-family:Dotsies;-inkscape-font-specification:Dotsies Medium"
       d="m 61.826411,1000.7966 c 4.787033,0 9.574065,0 14.361097,0 0,11.899 0,23.7981 0,35.6971 -4.787032,0 -9.574064,0 -14.361097,0 0,-11.899 0,-23.7981 0,-35.6971 z"
       id="text2985" />
    <path
       style="fill:#000000;fill-opacity:0;fill-rule:evenodd;stroke:none"
       d="m 18.907062,46.194506 0,-5.827178 7.059851,0 7.05985,0 0,5.827178 0,5.827178 -7.05985,0 -7.059851,0 0,-5.827178 z"
       id="path3783"
       inkscape:connector-curvature="0"
       transform="translate(0,972.36221)" />
    <path
       style="fill:#000080;fill-opacity:0;fill-rule:evenodd;stroke:none"
       d="m 18.907062,46.194506 0,-5.827178 7.059851,0 7.05985,0 0,5.827178 0,5.827178 -7.05985,0 -7.059851,0 0,-5.827178 z"
       id="path3785"
       inkscape:connector-curvature="0"
       transform="translate(0,972.36221)" />
    <path
       style="fill:#000080;fill-opacity:0;fill-rule:evenodd;stroke:none"
       d="m 18.907062,46.194506 0,-5.827178 7.059851,0 7.05985,0 0,5.827178 0,5.827178 -7.05985,0 -7.059851,0 0,-5.827178 z"
       id="path3787"
       inkscape:connector-curvature="0"
       transform="translate(0,972.36221)" />
    <path
       style="fill:#000080;fill-opacity:0;fill-rule:evenodd;stroke:none"
       d="m 18.907062,46.194506 0,-5.827178 7.059851,0 7.05985,0 0,5.827178 0,5.827178 -7.05985,0 -7.059851,0 0,-5.827178 z"
       id="path3789"
       inkscape:connector-curvature="0"
       transform="translate(0,972.36221)" />
    <path
       style="fill:#000080;fill-opacity:0;fill-rule:evenodd;stroke:none"
       d="m 7.9250727,7.8696037 0,-3.1377113 3.4738943,0 3.473895,0 0,3.1377113 0,3.1377113 -3.473895,0 -3.4738943,0 0,-3.1377113 z"
       id="path3817"
       inkscape:connector-curvature="0"
       transform="translate(0,972.36221)" />
  </g>
</svg>
